<svg width="26" height="25" viewBox="0 0 26 25" fill="none" xmlns="http://www.w3.org/2000/svg">
<g clip-path="url(#clip0_19207_1839)">
<path d="M25.6363 12.8279C25.6363 6.10515 20.4077 0.43396 13.685 0.43396C6.9622 0.43396 1.29102 6.10515 1.29102 12.8279C1.29102 19.5506 6.9622 24.7792 13.685 24.7792C20.4077 24.7792 25.6363 19.5506 25.6363 12.8279Z" fill="#101111"/>
<path d="M12.3595 11.9426L11.0325 11.4999C11.0253 11.4399 11.0325 11.6135 11.0325 11.4999C11.0325 10.9191 11.4813 10.1366 11.9172 9.72938C12.3531 9.31543 12.9578 9.28674 13.6866 9.28674C14.4083 9.28674 14.5921 9.34217 15.0136 9.72938C15.4352 10.1099 15.8983 10.9391 15.8983 11.4999C15.8983 12.3211 15.443 12.7564 14.5713 13.2705L13.2442 14.1558C12.7512 14.4496 12.431 14.7273 12.3595 15.0411H15.8983V15.9264H11.0325C11.0468 15.3789 11.2248 15.0124 11.4748 14.5984C11.732 14.1845 12.2231 13.6177 12.8019 13.2705L13.6866 12.8279C14.3225 12.4473 15.0136 12.0207 15.0136 11.4999C15.0136 11.1795 14.8 10.835 14.5713 10.6147C14.3427 10.3943 14.101 10.172 13.6866 10.172C13.2507 10.172 12.5882 10.3677 12.3595 10.6147C12.1309 10.8617 12.3595 11.106 12.3595 11.4999C12.3595 11.56 12.3453 11.809 12.3595 11.9426Z" fill="white"/>
</g>
<rect x="1.2942" y="0.433974" width="23.9026" height="23.9026" rx="11.9513" stroke="white" stroke-width="0.885281"/>
<defs>
<clipPath id="clip0_19207_1839">
<rect x="0.851562" y="-0.00866699" width="24.7879" height="24.7879" rx="12.3939" fill="white"/>
</clipPath>
</defs>
</svg>
