<svg width="26" height="25" viewBox="0 0 26 25" fill="none" xmlns="http://www.w3.org/2000/svg">
<g clip-path="url(#clip0_19207_1849)">
<path d="M25.6363 12.9805C25.6363 6.25773 20.4077 0.586548 13.685 0.586548C6.9622 0.586548 1.29102 6.25773 1.29102 12.9805C1.29102 19.7032 6.9622 24.9318 13.685 24.9318C20.4077 24.9318 25.6363 19.7032 25.6363 12.9805Z" fill="#101111"/>
<path d="M12.3575 12.9805L11.9148 12.0952L14.128 10.3246H10.5869V9.43933H15.456V10.3246L13.2428 12.0952C13.7815 12.0952 14.6042 12.1911 15.0133 12.5378C15.4293 12.8844 15.456 13.2458 15.456 13.8657C15.456 14.439 15.4429 15.2296 15.0133 15.6363C14.5837 16.0429 13.9861 16.0789 13.2428 16.0789C12.5131 16.0789 11.9155 16.0296 11.4722 15.6363C11.0358 15.2363 10.621 14.4324 10.5869 13.8657H11.4722C11.4927 14.2857 11.6421 14.491 11.9148 14.751C12.1944 15.0043 12.8336 15.1937 13.2428 15.1937C13.6792 15.1937 13.8825 14.9777 14.128 14.751C14.3804 14.5177 14.5707 14.2057 14.5707 13.8657C14.5707 13.4724 14.394 13.1871 14.128 12.9805C13.8621 12.7738 13.611 12.9805 13.2428 12.9805C13.045 12.9805 12.5485 12.9138 12.3575 12.9805Z" fill="white"/>
</g>
<rect x="1.2942" y="0.586562" width="23.9026" height="23.9026" rx="11.9513" stroke="white" stroke-width="0.885281"/>
<defs>
<clipPath id="clip0_19207_1849">
<rect x="0.851562" y="0.143921" width="24.7879" height="24.7879" rx="12.3939" fill="white"/>
</clipPath>
</defs>
</svg>
