<svg width="26" height="25" viewBox="0 0 26 25" fill="none" xmlns="http://www.w3.org/2000/svg">
<path d="M18.3016 23.8892C20.8928 22.6613 22.9781 20.573 24.2022 17.98C25.4263 15.387 25.7134 12.4498 25.0147 9.66883C24.3159 6.88786 22.6745 4.43521 20.3702 2.72878C18.0658 1.02235 15.241 0.16771 12.3772 0.31049C9.51336 0.45327 6.78761 1.58463 4.66441 3.51181C2.54121 5.43898 1.15191 8.04273 0.733236 10.8794C0.314563 13.7161 0.892422 16.6102 2.36835 19.0685C3.84428 21.5269 6.12696 23.3975 8.82745 24.3615L12.9944 12.6891L18.3016 23.8892Z" fill="url(#paint0_linear_19207_1836)"/>
<defs>
<linearGradient id="paint0_linear_19207_1836" x1="15.2479" y1="24.883" x2="13.7744" y2="0.326629" gradientUnits="userSpaceOnUse">
<stop stop-color="#7A87FB"/>
<stop offset="1" stop-color="#FFD49C"/>
</linearGradient>
</defs>
</svg>
