<svg width="25" height="25" viewBox="0 0 25 25" fill="none" xmlns="http://www.w3.org/2000/svg">
<path d="M0.12566 15.9699C0.951821 18.7157 2.70449 21.0901 5.08505 22.6885C7.4656 24.287 10.3267 25.0105 13.181 24.7359C16.0352 24.4613 18.7059 23.2055 20.738 21.1826C22.7702 19.1596 24.038 16.4946 24.3255 13.6416C24.613 10.7887 23.9024 7.9243 22.3147 5.53655C20.7271 3.1488 18.3606 1.38541 15.6186 0.546848C12.8765 -0.291714 9.92856 -0.153565 7.27695 0.937753C4.62534 2.02907 2.43417 4.00604 1.07677 6.5318L11.994 12.3989L0.12566 15.9699Z" fill="url(#paint0_linear_19207_1847)"/>
<defs>
<linearGradient id="paint0_linear_19207_1847" x1="3.46852" y1="21.4038" x2="22.4428" y2="5.74612" gradientUnits="userSpaceOnUse">
<stop stop-color="#7A87FB"/>
<stop offset="1" stop-color="#FFD49C"/>
</linearGradient>
</defs>
</svg>
