<svg width="16" height="16" viewBox="0 0 16 16" fill="none" xmlns="http://www.w3.org/2000/svg">
<g clip-path="url(#clip0_19207_1937)">
<path d="M14.6624 8.25652C14.6635 9.09147 14.4991 9.91835 14.1787 10.6894C13.8584 11.4604 13.3884 12.1603 12.7959 12.7487C12.2083 13.3352 11.5109 13.8003 10.7434 14.1172C9.97603 14.4341 9.15368 14.5966 8.32341 14.5955C4.82237 14.5955 1.98438 11.7576 1.98438 8.25652C1.98216 6.63112 2.60652 5.0674 3.72761 3.89051C4.31915 3.2663 5.03184 2.76937 5.82207 2.43012C6.6123 2.09086 7.46344 1.91643 8.32341 1.91749C9.15368 1.91641 9.97603 2.07897 10.7434 2.39586C11.5109 2.71276 12.2083 3.17779 12.7959 3.76436C13.3884 4.3527 13.8584 5.0526 14.1787 5.82364C14.4991 6.59468 14.6635 7.42157 14.6624 8.25652Z" stroke="white" stroke-width="1.52137" stroke-linecap="round" stroke-linejoin="round"/>
<path d="M14.6625 8.25642C13.7377 8.25642 11.1862 7.90778 8.90259 8.91029C6.42181 9.99966 4.62564 11.6896 3.84277 12.7403" stroke="white" stroke-width="1.52137" stroke-linecap="round" stroke-linejoin="round"/>
<path d="M5.94727 2.37891C6.93932 3.29458 9.1041 5.62576 9.90916 7.94014C10.7142 10.2545 11.0122 13.1001 11.196 13.9099" stroke="white" stroke-width="1.52137" stroke-linecap="round" stroke-linejoin="round"/>
<path d="M2.03516 7.46409C3.2326 7.53635 6.40243 7.60133 8.43092 6.7351C10.4594 5.86887 12.2049 4.27556 12.8036 3.77002M2.46177 10.6694C3.02034 12.0215 4.02774 13.1398 5.31434 13.8361" stroke="white" stroke-width="1.52137" stroke-linecap="round" stroke-linejoin="round"/>
<path d="M1.98438 8.25652C1.98216 6.63112 2.60652 5.0674 3.72761 3.89051C4.31915 3.2663 5.03184 2.76937 5.82207 2.43012C6.6123 2.09086 7.46344 1.91643 8.32341 1.91749M10.859 2.44489C11.5809 2.76075 12.2377 3.20819 12.7959 3.76436C13.3884 4.3527 13.8584 5.0526 14.1787 5.82364C14.4991 6.59468 14.6635 7.42157 14.6624 8.25652C14.6624 9.03685 14.5214 9.78454 14.2631 10.4752M8.32341 14.5955C9.15368 14.5966 9.97603 14.4341 10.7434 14.1172C11.5109 13.8003 12.2083 13.3352 12.7959 12.7487" stroke="white" stroke-width="1.52137" stroke-linecap="round" stroke-linejoin="round"/>
</g>
<defs>
<clipPath id="clip0_19207_1937">
<rect width="15.2137" height="15.2137" fill="white" transform="translate(0.717773 0.649414)"/>
</clipPath>
</defs>
</svg>
