<svg width="16" height="16" viewBox="0 0 16 16" fill="none" xmlns="http://www.w3.org/2000/svg">
<g clip-path="url(#clip0_19207_1950)">
<path fill-rule="evenodd" clip-rule="evenodd" d="M3.21898 8.257C3.21907 7.28108 3.50076 6.32591 4.03024 5.5061C4.55972 4.6863 5.31451 4.03669 6.20403 3.63522C7.09356 3.23375 8.08003 3.09748 9.04508 3.24275C10.0101 3.38802 10.9128 3.80866 11.6447 4.45421C12.3766 5.09976 12.9067 5.94278 13.1714 6.88213C13.436 7.82148 13.4241 8.81725 13.1368 9.74995C12.8496 10.6827 12.2994 11.5127 11.5521 12.1404C10.8049 12.7681 9.89238 13.1669 8.92411 13.2889V9.52481H10.1919C10.36 9.52481 10.5213 9.45802 10.6402 9.33914C10.759 9.22026 10.8258 9.05902 10.8258 8.8909C10.8258 8.72278 10.759 8.56155 10.6402 8.44267C10.5213 8.32379 10.36 8.257 10.1919 8.257H8.92411V6.98919C8.92411 6.82107 8.99089 6.65984 9.10977 6.54096C9.22865 6.42208 9.38989 6.35529 9.55801 6.35529H9.87496C10.0431 6.35529 10.2043 6.2885 10.3232 6.16962C10.4421 6.05075 10.5089 5.88951 10.5089 5.72139C10.5089 5.55327 10.4421 5.39203 10.3232 5.27315C10.2043 5.15427 10.0431 5.08748 9.87496 5.08748H9.55801C9.05365 5.08748 8.56994 5.28784 8.2133 5.64448C7.85666 6.00112 7.6563 6.48483 7.6563 6.98919V8.257H6.38849C6.22037 8.257 6.05914 8.32379 5.94026 8.44267C5.82138 8.56155 5.75459 8.72278 5.75459 8.8909C5.75459 9.05902 5.82138 9.22026 5.94026 9.33914C6.05914 9.45802 6.22037 9.52481 6.38849 9.52481H7.6563V13.2889C6.43078 13.1344 5.30377 12.5379 4.48679 11.6115C3.6698 10.685 3.219 9.49223 3.21898 8.257ZM8.2902 14.596C11.7913 14.596 14.6292 11.758 14.6292 8.257C14.6292 4.75595 11.7913 1.91797 8.2902 1.91797C4.78916 1.91797 1.95117 4.75595 1.95117 8.257C1.95117 11.758 4.78916 14.596 8.2902 14.596Z" fill="white"/>
</g>
<defs>
<clipPath id="clip0_19207_1950">
<rect width="15.2137" height="15.2137" fill="white" transform="translate(0.683594 0.649414)"/>
</clipPath>
</defs>
</svg>
