<svg width="20" height="20" viewBox="0 0 20 20" fill="none" xmlns="http://www.w3.org/2000/svg">
<g clip-path="url(#clip0_19207_1533)">
<path d="M1.6665 10.17C1.6665 8.26293 1.6665 7.30942 2.09917 6.51897C2.53184 5.72853 3.32229 5.23795 4.9032 4.25679L6.56986 3.22241C8.24099 2.18526 9.07656 1.66669 9.99984 1.66669C10.9231 1.66669 11.7587 2.18526 13.4298 3.22241L15.0965 4.25679C16.6774 5.23795 17.4678 5.72853 17.9005 6.51897C18.3332 7.30942 18.3332 8.26293 18.3332 10.17V11.4375C18.3332 14.6882 18.3332 16.3136 17.3569 17.3235C16.3805 18.3334 14.8092 18.3334 11.6665 18.3334H8.33317C5.19047 18.3334 3.61913 18.3334 2.64281 17.3235C1.6665 16.3136 1.6665 14.6882 1.6665 11.4375V10.17Z" stroke="white" stroke-width="1.5"/>
<path d="M10 12.5L10 15" stroke="white" stroke-width="1.5" stroke-linecap="round"/>
</g>
<defs>
<clipPath id="clip0_19207_1533">
<rect width="20" height="20" fill="white"/>
</clipPath>
</defs>
</svg>
