<svg width="16" height="16" viewBox="0 0 16 16" fill="none" xmlns="http://www.w3.org/2000/svg">
<path d="M8.30842 6.3548C7.80405 6.3548 7.32034 6.55516 6.9637 6.9118C6.60706 7.26844 6.40671 7.75215 6.40671 8.25651C6.40671 8.76088 6.60706 9.24458 6.9637 9.60122C7.32034 9.95786 7.80405 10.1582 8.30842 10.1582C8.81278 10.1582 9.29649 9.95786 9.65313 9.60122C10.0098 9.24458 10.2101 8.76088 10.2101 8.25651C10.2101 7.75215 10.0098 7.26844 9.65313 6.9118C9.29649 6.55516 8.81278 6.3548 8.30842 6.3548ZM8.30842 5.087C9.14902 5.087 9.9552 5.42093 10.5496 6.01533C11.144 6.60973 11.4779 7.4159 11.4779 8.25651C11.4779 9.09712 11.144 9.9033 10.5496 10.4977C9.9552 11.0921 9.14902 11.426 8.30842 11.426C7.46781 11.426 6.66163 11.0921 6.06723 10.4977C5.47283 9.9033 5.1389 9.09712 5.1389 8.25651C5.1389 7.4159 5.47283 6.60973 6.06723 6.01533C6.66163 5.42093 7.46781 5.087 8.30842 5.087ZM12.4288 4.92852C12.4288 5.13867 12.3453 5.34022 12.1967 5.48882C12.0481 5.63742 11.8466 5.7209 11.6364 5.7209C11.4263 5.7209 11.2247 5.63742 11.0761 5.48882C10.9275 5.34022 10.844 5.13867 10.844 4.92852C10.844 4.71837 10.9275 4.51682 11.0761 4.36822C11.2247 4.21962 11.4263 4.13614 11.6364 4.13614C11.8466 4.13614 12.0481 4.21962 12.1967 4.36822C12.3453 4.51682 12.4288 4.71837 12.4288 4.92852ZM8.30842 3.18529C6.74014 3.18529 6.48404 3.18972 5.75442 3.22205C5.25744 3.24551 4.92401 3.31207 4.61466 3.43251C4.35579 3.52755 4.12175 3.6799 3.93005 3.87814C3.73164 4.06983 3.57909 4.30386 3.48378 4.56276C3.36334 4.87337 3.29678 5.20617 3.27396 5.70252C3.24099 6.40235 3.23656 6.64703 3.23656 8.25651C3.23656 9.82542 3.24099 10.0809 3.27332 10.8105C3.29678 11.3069 3.36334 11.6409 3.48314 11.9496C3.59091 12.2254 3.71769 12.4238 3.92814 12.6342C4.14177 12.8472 4.34018 12.9747 4.61276 13.0799C4.92591 13.201 5.25934 13.2681 5.75379 13.291C6.45361 13.3239 6.6983 13.3277 8.30778 13.3277C9.87669 13.3277 10.1322 13.3233 10.8618 13.291C11.3575 13.2675 11.6909 13.201 12.0009 13.0811C12.2595 12.9856 12.4935 12.8334 12.6855 12.6355C12.8991 12.4225 13.0266 12.2241 13.1318 11.9509C13.2522 11.639 13.3194 11.3056 13.3422 10.8099C13.3752 10.1107 13.379 9.86536 13.379 8.25651C13.379 6.68824 13.3746 6.43214 13.3422 5.70252C13.3188 5.2068 13.2516 4.8721 13.1318 4.56276C13.0362 4.30414 12.884 4.0702 12.6862 3.87814C12.4945 3.67963 12.2605 3.52707 12.0015 3.43187C11.6909 3.31143 11.3575 3.24487 10.8618 3.22205C10.1626 3.18909 9.9179 3.18529 8.30778 3.18529M8.30778 1.91748C10.0301 1.91748 10.245 1.92382 10.9214 1.95551C11.5958 1.98721 12.0561 2.09307 12.4598 2.25028C12.8782 2.41129 13.2307 2.62935 13.5831 2.98117C13.9055 3.29806 14.1549 3.68137 14.314 4.10445C14.4706 4.50824 14.5771 4.96846 14.6088 5.64356C14.6386 6.3193 14.6468 6.5342 14.6468 8.25651C14.6468 9.97883 14.6405 10.1937 14.6088 10.8695C14.5771 11.5446 14.4706 12.0041 14.314 12.4086C14.1553 12.8319 13.9058 13.2153 13.5831 13.5319C13.2661 13.8541 12.8829 14.1035 12.4598 14.2627C12.0561 14.4193 11.5958 14.5258 10.9214 14.5575C10.245 14.5873 10.0301 14.5955 8.30778 14.5955C6.58547 14.5955 6.37057 14.5892 5.6942 14.5575C5.01973 14.5258 4.56015 14.4193 4.15572 14.2627C3.73248 14.1039 3.34909 13.8545 3.03244 13.5319C2.71006 13.215 2.46063 12.8317 2.30155 12.4086C2.14434 12.0048 2.03848 11.5446 2.00678 10.8695C1.97636 10.1937 1.96875 9.97883 1.96875 8.25651C1.96875 6.5342 1.97509 6.3193 2.00678 5.64356C2.03848 4.96846 2.14434 4.50888 2.30155 4.10445C2.46017 3.68111 2.70966 3.29769 3.03244 2.98117C3.34918 2.65866 3.73254 2.40922 4.15572 2.25028C4.55951 2.09307 5.01909 1.98721 5.6942 1.95551C6.37121 1.92572 6.5861 1.91748 8.30842 1.91748" fill="white"/>
</svg>
