<svg width="34" height="35" viewBox="0 0 34 35" fill="none" xmlns="http://www.w3.org/2000/svg">
<path d="M14.0951 28.8975C7.66319 28.8975 2.43848 23.6882 2.43848 17.2752V6.24487C8.87041 6.24487 14.0951 11.4542 14.0951 17.8671V28.8975Z" fill="url(#paint0_linear_19207_1740)"/>
<path d="M15.1055 19.5049V13.6445C15.1055 9.55989 18.4303 6.24487 22.5269 6.24487V12.1053C22.5269 16.1899 19.2021 19.5049 15.1055 19.5049Z" fill="url(#paint1_linear_19207_1740)"/>
<path d="M31.8879 28.8971H23.3779C18.8063 28.8971 15.1055 25.2072 15.1055 20.649H23.6154C28.187 20.649 31.8879 24.339 31.8879 28.8971Z" fill="url(#paint2_linear_19207_1740)"/>
<defs>
<linearGradient id="paint0_linear_19207_1740" x1="2.43848" y1="17.5712" x2="14.0951" y2="17.5712" gradientUnits="userSpaceOnUse">
<stop stop-color="#7A87FB"/>
<stop offset="1" stop-color="#FFD49C"/>
</linearGradient>
<linearGradient id="paint1_linear_19207_1740" x1="15.1055" y1="12.8749" x2="22.5269" y2="12.8749" gradientUnits="userSpaceOnUse">
<stop stop-color="#7A87FB"/>
<stop offset="1" stop-color="#FFD49C"/>
</linearGradient>
<linearGradient id="paint2_linear_19207_1740" x1="15.1055" y1="24.7731" x2="31.8879" y2="24.7731" gradientUnits="userSpaceOnUse">
<stop stop-color="#7A87FB"/>
<stop offset="1" stop-color="#FFD49C"/>
</linearGradient>
</defs>
</svg>
