<svg width="17" height="17" viewBox="0 0 17 17" fill="none" xmlns="http://www.w3.org/2000/svg">
<path d="M4.44792 5.23792H7.78125C7.95806 5.23792 8.12763 5.30815 8.25265 5.43318C8.37768 5.5582 8.44792 5.72777 8.44792 5.90458C8.44792 6.08139 8.37768 6.25096 8.25265 6.37599C8.12763 6.50101 7.95806 6.57125 7.78125 6.57125H4.44792C4.27111 6.57125 4.10154 6.50101 3.97651 6.37599C3.85149 6.25096 3.78125 6.08139 3.78125 5.90458C3.78125 5.72777 3.85149 5.5582 3.97651 5.43318C4.10154 5.30815 4.27111 5.23792 4.44792 5.23792ZM9.11458 10.5712H12.4479C12.6247 10.5712 12.7943 10.6415 12.9193 10.7665C13.0443 10.8915 13.1146 11.0611 13.1146 11.2379C13.1146 11.4147 13.0443 11.5843 12.9193 11.7093C12.7943 11.8343 12.6247 11.9046 12.4479 11.9046H9.11458C8.93777 11.9046 8.7682 11.8343 8.64318 11.7093C8.51815 11.5843 8.44792 11.4147 8.44792 11.2379C8.44792 11.0611 8.51815 10.8915 8.64318 10.7665C8.7682 10.6415 8.93777 10.5712 9.11458 10.5712ZM4.44792 7.90458H12.4479C12.6247 7.90458 12.7943 7.97482 12.9193 8.09984C13.0443 8.22487 13.1146 8.39444 13.1146 8.57125C13.1146 8.74806 13.0443 8.91763 12.9193 9.04265C12.7943 9.16768 12.6247 9.23791 12.4479 9.23791H4.44792C4.27111 9.23791 4.10154 9.16768 3.97651 9.04265C3.85149 8.91763 3.78125 8.74806 3.78125 8.57125C3.78125 8.39444 3.85149 8.22487 3.97651 8.09984C4.10154 7.97482 4.27111 7.90458 4.44792 7.90458Z" fill="white"/>
</svg>
