<svg width="37" height="27" viewBox="0 0 37 27" fill="none" xmlns="http://www.w3.org/2000/svg">
<path d="M16.0898 19.1658C16.0898 23.3401 13.2154 26.5024 8.84122 26.5024C4.46706 26.5024 0.717773 22.9606 0.717773 16.6359C0.717773 8.79332 6.59165 2.08915 14.2152 0.824219V5.50449C9.84103 6.38994 6.59165 9.55229 6.59165 13.2206C7.34151 12.7146 8.34131 12.3351 9.966 12.3351C13.2154 12.3351 16.0898 14.7385 16.0898 19.1658ZM36.336 19.1658C36.336 23.3401 33.3365 26.5024 28.9624 26.5024C24.7132 26.5024 20.8389 22.9606 20.8389 16.6359C20.8389 8.79332 26.7128 2.08915 34.4613 0.824219V5.50449C30.0872 6.38994 26.8378 9.55229 26.8378 13.0941C27.5876 12.5881 28.7124 12.3351 30.2121 12.3351C33.4615 12.3351 36.336 14.7385 36.336 19.1658Z" fill="url(#paint0_linear_19207_1892)" stroke="url(#paint1_linear_19207_1892)" stroke-width="0.82833"/>
<defs>
<linearGradient id="paint0_linear_19207_1892" x1="36.1941" y1="11.9931" x2="0.847934" y2="12.3645" gradientUnits="userSpaceOnUse">
<stop stop-color="#7A87FB"/>
<stop offset="1" stop-color="#FFD49C"/>
</linearGradient>
<linearGradient id="paint1_linear_19207_1892" x1="0.717774" y1="1.23838" x2="39.2351" y2="26.9166" gradientUnits="userSpaceOnUse">
<stop stop-color="white"/>
<stop offset="0.294339" stop-color="white" stop-opacity="0"/>
</linearGradient>
</defs>
</svg>
